<svg width="19" height="14" viewBox="0 0 19 14" fill="none" xmlns="http://www.w3.org/2000/svg">
<path d="M16.6554 1.69354C14.3272 -0.0484625 12.0968 0.000337255 12.0968 0.000337255L11.8688 0.260737C14.6366 1.09114 15.9228 2.31214 15.9228 2.31214C11.963 0.131937 6.919 0.147537 2.8002 2.31214C2.8002 2.31214 4.1352 1.02594 7.0658 0.195537L6.903 0.000137365C6.903 0.000137365 4.6888 -0.0486628 2.3444 1.69334C2.3444 1.69334 0 5.91014 0 11.1037C0 11.1037 1.3676 13.4481 4.9658 13.5621C4.9658 13.5621 5.5682 12.8457 6.0566 12.2271C3.9888 11.6085 3.2074 10.3223 3.2074 10.3223C4.5064 11.1351 5.82 11.6439 7.4568 11.9667C10.12 12.5149 13.4326 11.9513 15.9066 10.3223C15.9066 10.3223 15.0926 11.6411 12.9598 12.2435C13.4482 12.8459 14.0344 13.5459 14.0344 13.5459C17.6322 13.4321 18.9998 11.0877 18.9998 11.1039C18.9998 5.91034 16.6554 1.69354 16.6554 1.69354ZM6.4634 9.58994C5.5516 9.58994 4.8028 8.79214 4.8028 7.79894C4.8694 5.42054 8.0742 5.42794 8.1242 7.79894C8.124 8.79214 7.3914 9.58994 6.4634 9.58994ZM12.406 9.58994C11.4942 9.58994 10.7454 8.79214 10.7454 7.79894C10.8186 5.42514 13.9834 5.42414 14.0668 7.79894C14.0666 8.79214 13.334 9.58994 12.406 9.58994Z" fill="#434343"/>
</svg>
