<svg width="17" height="17" viewBox="0 0 17 17" fill="none" xmlns="http://www.w3.org/2000/svg">
<path d="M8.33333 6.26667C7.92459 6.26667 7.52502 6.38787 7.18515 6.61496C6.84529 6.84205 6.5804 7.16482 6.42398 7.54245C6.26756 7.92009 6.22663 8.33563 6.30638 8.73652C6.38612 9.13741 6.58295 9.50566 6.87198 9.79469C7.16101 10.0837 7.52925 10.2805 7.93015 10.3603C8.33104 10.44 8.74658 10.3991 9.12421 10.2427C9.50185 10.0863 9.82462 9.82137 10.0517 9.48151C10.2788 9.14165 10.4 8.74208 10.4 8.33333C10.4 8.06194 10.3465 7.79319 10.2427 7.54245C10.1388 7.29172 9.9866 7.06389 9.79469 6.87198C9.60278 6.68007 9.37495 6.52784 9.12421 6.42398C8.87347 6.32012 8.60473 6.26667 8.33333 6.26667ZM16.6083 4.225C16.604 3.58147 16.4854 2.94381 16.2583 2.34167C16.0911 1.90105 15.8323 1.50091 15.499 1.16765C15.1658 0.834397 14.7656 0.575598 14.325 0.408333C13.7229 0.18122 13.0852 0.0627174 12.4417 0.0583333C11.3667 -5.58794e-08 11.05 0 8.33333 0C5.61667 0 5.3 -5.58794e-08 4.225 0.0583333C3.58147 0.0627174 2.94381 0.18122 2.34167 0.408333C1.90105 0.575598 1.50091 0.834397 1.16765 1.16765C0.834397 1.50091 0.575598 1.90105 0.408333 2.34167C0.18122 2.94381 0.0627174 3.58147 0.0583333 4.225C-5.58794e-08 5.3 0 5.61667 0 8.33333C0 11.05 -5.58794e-08 11.3667 0.0583333 12.4417C0.0673032 13.0875 0.185645 13.7271 0.408333 14.3333C0.574857 14.7719 0.833441 15.1698 1.16667 15.5C1.49849 15.8353 1.89949 16.0941 2.34167 16.2583C2.94381 16.4854 3.58147 16.604 4.225 16.6083C5.3 16.6667 5.61667 16.6667 8.33333 16.6667C11.05 16.6667 11.3667 16.6667 12.4417 16.6083C13.0852 16.604 13.7229 16.4854 14.325 16.2583C14.7672 16.0941 15.1682 15.8353 15.5 15.5C15.8332 15.1698 16.0918 14.7719 16.2583 14.3333C16.4852 13.7282 16.6037 13.0879 16.6083 12.4417C16.6667 11.3667 16.6667 11.05 16.6667 8.33333C16.6667 5.61667 16.6667 5.3 16.6083 4.225ZM14.4917 10.8917C14.4649 11.4059 14.3552 11.9125 14.1667 12.3917C14.0049 12.7914 13.7644 13.1545 13.4595 13.4595C13.1545 13.7644 12.7914 14.0049 12.3917 14.1667C11.9079 14.3447 11.3986 14.4432 10.8833 14.4583C10.225 14.4583 10.05 14.4583 8.33333 14.4583C6.61667 14.4583 6.44167 14.4583 5.78333 14.4583C5.26811 14.4432 4.75874 14.3447 4.275 14.1667C3.86175 14.0131 3.48856 13.7681 3.18333 13.45C2.88139 13.151 2.6482 12.7899 2.5 12.3917C2.3213 11.9084 2.22551 11.3985 2.21667 10.8833C2.21667 10.225 2.21667 10.05 2.21667 8.33333C2.21667 6.61667 2.21667 6.44167 2.21667 5.78333C2.22551 5.26819 2.3213 4.75824 2.5 4.275C2.65357 3.86175 2.89856 3.48856 3.21667 3.18333C3.51694 2.88302 3.87772 2.65008 4.275 2.5C4.75874 2.32201 5.26811 2.22351 5.78333 2.20833C6.44167 2.20833 6.61667 2.20833 8.33333 2.20833C10.05 2.20833 10.225 2.20833 10.8833 2.20833C11.3986 2.22351 11.9079 2.32201 12.3917 2.5C12.8049 2.65357 13.1781 2.89856 13.4833 3.21667C13.7853 3.51562 14.0185 3.87678 14.1667 4.275C14.3447 4.75874 14.4432 5.26811 14.4583 5.78333C14.4583 6.44167 14.4583 6.61667 14.4583 8.33333C14.4583 10.05 14.5167 10.225 14.4917 10.8833V10.8917ZM13.1583 4.69167C13.0591 4.42249 12.9027 4.17804 12.6998 3.97518C12.497 3.77232 12.2525 3.61589 11.9833 3.51667C11.6137 3.38855 11.2245 3.32649 10.8333 3.33333C10.1833 3.33333 10 3.33333 8.33333 3.33333C6.66667 3.33333 6.48333 3.33333 5.83333 3.33333C5.44022 3.33718 5.05089 3.41053 4.68333 3.55C4.41827 3.64471 4.17641 3.79476 3.97382 3.99017C3.77123 4.18557 3.61255 4.42186 3.50833 4.68333C3.38731 5.05447 3.32819 5.443 3.33333 5.83333C3.33333 6.48333 3.33333 6.66667 3.33333 8.33333C3.33333 10 3.33333 10.1833 3.33333 10.8333C3.3416 11.226 3.41481 11.6146 3.55 11.9833C3.64922 12.2525 3.80565 12.497 4.00851 12.6998C4.21137 12.9027 4.45582 13.0591 4.725 13.1583C5.08056 13.2891 5.45471 13.3622 5.83333 13.375C6.48333 13.375 6.66667 13.375 8.33333 13.375C10 13.375 10.1833 13.375 10.8333 13.375C11.2264 13.3712 11.6158 13.2978 11.9833 13.1583C12.2525 13.0591 12.497 12.9027 12.6998 12.6998C12.9027 12.497 13.0591 12.2525 13.1583 11.9833C13.2978 11.6158 13.3712 11.2264 13.375 10.8333C13.375 10.1833 13.375 10 13.375 8.33333C13.375 6.66667 13.375 6.48333 13.375 5.83333C13.3752 5.43983 13.3018 5.04977 13.1583 4.68333V4.69167ZM8.33333 11.5167C7.91568 11.5167 7.50214 11.4343 7.11639 11.2742C6.73063 11.1141 6.38025 10.8795 6.08532 10.5838C5.79038 10.2881 5.55669 9.93708 5.39762 9.55091C5.23855 9.16474 5.15724 8.75098 5.15833 8.33333C5.15834 7.70338 5.34525 7.08758 5.69541 6.56391C6.04557 6.04023 6.54323 5.63222 7.12539 5.39153C7.70755 5.15084 8.34804 5.08828 8.96578 5.21179C9.58351 5.3353 10.1507 5.63931 10.5956 6.08534C11.0404 6.53137 11.343 7.09937 11.4648 7.71742C11.5867 8.33547 11.5225 8.9758 11.2803 9.55733C11.0381 10.1389 10.6288 10.6354 10.1042 10.9842C9.57957 11.333 8.96329 11.5183 8.33333 11.5167ZM11.6667 5.775C11.4825 5.7555 11.312 5.66852 11.1881 5.53081C11.0642 5.3931 10.9956 5.21441 10.9956 5.02917C10.9956 4.84392 11.0642 4.66523 11.1881 4.52752C11.312 4.38982 11.4825 4.30283 11.6667 4.28333C11.8509 4.30283 12.0214 4.38982 12.1453 4.52752C12.2692 4.66523 12.3377 4.84392 12.3377 5.02917C12.3377 5.21441 12.2692 5.3931 12.1453 5.53081C12.0214 5.66852 11.8509 5.7555 11.6667 5.775Z" fill="#434343"/>
</svg>
